<svg xmlns="http://www.w3.org/2000/svg" viewBox="0 0 70.1 54.57"><defs><style>.cls-1,.cls-2{fill:none;stroke:#000;stroke-linejoin:round;stroke-width:5px;}.cls-2{stroke-linecap:square;}</style></defs><g id="Calque_2" data-name="Calque 2"><g id="Calque_1-2" data-name="Calque 1"><path class="cls-1" d="M2.5,36.93C12,46.46,46.16,56,67.6,50.43c-4.77-7.94-9.53-11.91-16.68-14.29,4-6.35-4.76-28.58,12.71-32.55C41.4-1.17,24.73,10.74,23.14,18.67S20,32.17,20,32.17,9.64,29,2.5,36.93Z"/><polygon class="cls-1" points="31.39 25.21 28.99 36.01 40.88 38.64 43.52 26.8 31.39 25.21"/><path class="cls-1" d="M21.8,22.48c2.19,2.28,9.46,3.18,9.46,3.18"/><path class="cls-1" d="M20.89,30.66c2.19,2.27,9.46,3.18,9.46,3.18"/><path class="cls-1" d="M42.16,27.9s9,.21,10-.42"/><path class="cls-2" d="M42.16,35.92s6.11.74,8.79-.69"/></g></g></svg>