<svg xmlns="http://www.w3.org/2000/svg" viewBox="0 0 70.73 51.15"><defs><style>.cls-1,.cls-2{fill:none;stroke:#000;stroke-linejoin:round;stroke-width:5px;}.cls-2{stroke-linecap:round;}</style></defs><g id="Calque_2" data-name="Calque 2"><g id="Calque_1-2" data-name="Calque 1"><path class="cls-1" d="M3.44,2.63S36.29.42,35.35,14.14s0,34.51,0,34.51S25,40,2.5,40.5C2.5,24.6,3.44,2.63,3.44,2.63Z"/><path class="cls-1" d="M67.29,2.63S34.44.42,35.37,14.14s0,34.51,0,34.51S45.7,40,68.23,40.5C68.23,24.6,67.29,2.63,67.29,2.63Z"/><path class="cls-2" d="M11,13a25.13,25.13,0,0,1,6.38.15A21,21,0,0,1,27,17"/><path class="cls-2" d="M11,21c10-1,16,4,16,4"/><path class="cls-2" d="M11,30c10-1,16,4,16,4"/><path class="cls-2" d="M59,13a25.13,25.13,0,0,0-6.38.15A21,21,0,0,0,43,17"/><path class="cls-2" d="M59,21c-10-1-16,4-16,4"/><path class="cls-2" d="M59,30c-10-1-16,4-16,4"/></g></g></svg>