<svg xmlns="http://www.w3.org/2000/svg" viewBox="0 0 111.3 138.45"><defs><style>.cls-1{fill:#08afaa;}</style></defs><g id="Calque_2" data-name="Calque 2"><g id="Calque_1-2" data-name="Calque 1"><path class="cls-1" d="M35.92,69.74C18.43,66.7,9.3,57.66,8.79,42.88a22.11,22.11,0,0,1,6.35-16.25C22,19.41,32.79,16,40,15.81a18.29,18.29,0,0,1,16.33,8.25c2.8,4.07,4.71,9.5,6,17.06C63.47,48,60.1,56.82,53.91,63c-4.54,4.53-9.95,7-15.19,7A16.46,16.46,0,0,1,35.92,69.74Zm4.14-49.13c-6.2.13-15.56,3.1-21.43,9.32a17.17,17.17,0,0,0-5,12.78c.43,12.37,8,19.67,23.15,22.3,4.52.78,9.54-1.19,13.78-5.42,5.06-5,7.95-12.3,7-17.66C55,27.21,49.77,20.61,40.47,20.61Z"/><path class="cls-1" d="M27.39,15.49a2.38,2.38,0,0,0,2.11-1.26l4.15-7.66,5.52,6.27a2.4,2.4,0,0,0,3.6-3.18L35,.81A2.43,2.43,0,0,0,32.9,0a2.39,2.39,0,0,0-1.84,1.24L25.28,12a2.4,2.4,0,0,0,1,3.25A2.33,2.33,0,0,0,27.39,15.49Z"/><path class="cls-1" d="M36.41,57.06h.21a2.41,2.41,0,0,0,1.87-1.2l6-10.55a2.4,2.4,0,1,0-4.17-2.38L36,50.48l-5.37-6.4A2.4,2.4,0,0,0,27,47.17l7.59,9A2.39,2.39,0,0,0,36.41,57.06Z"/><line class="cls-1" x1="55.55" y1="16.23" x2="14.73" y2="21.32"/><path class="cls-1" d="M14.73,23.72l.3,0,40.81-5.08a2.4,2.4,0,1,0-.59-4.77L14.43,18.93a2.4,2.4,0,0,0,.3,4.79Z"/><ellipse class="cls-1" cx="47.8" cy="39.55" rx="2.99" ry="5.7" transform="translate(-9.52 15.8) rotate(-17.1)"/><ellipse class="cls-1" cx="23.1" cy="41.48" rx="5.7" ry="2.99" transform="translate(-22.25 55.52) rotate(-78.1)"/><path class="cls-1" d="M0,137.83l1-3.55c.05-.16,4.71-17.08,11.41-33.75,4-9.87,7.87-17.76,11.6-23.43,5.18-7.87,10.12-11.65,15.08-11.58a66.52,66.52,0,0,1,9.35.71C59,68,61.11,73.4,64,80.9c3.68,9.64,14.87,52.17,15.35,54l.94,3.57ZM17.64,102.6c-4.77,11.85-8.49,23.86-10.2,29.64l65.48.5C70.08,122.07,61.67,90.69,58.7,82.92c-2.88-7.51-4.12-10-11.2-11.11A58.47,58.47,0,0,0,39,71.18h-.06C36.27,71.17,29,74.31,17.64,102.6Z"/><polygon class="cls-1" points="35.19 91.45 50.24 70.68 45.67 67.36 36.11 80.54 32.3 72.79 27.23 75.29 35.19 91.45"/><path class="cls-1" d="M78.93,88.44a2.84,2.84,0,0,0,2.74-2.14l9.14-36.2a2.83,2.83,0,0,0-5.48-1.39L76.19,84.92a2.82,2.82,0,0,0,2,3.43A2.72,2.72,0,0,0,78.93,88.44Z"/><path class="cls-1" d="M101.65,45.61h.2l6.82-.47a2.83,2.83,0,0,0-.39-5.64l-6.83.47a2.83,2.83,0,0,0,.2,5.65Z"/><path class="cls-1" d="M95.17,37.86a2.83,2.83,0,0,0,2.69-2l3.48-11A2.83,2.83,0,0,0,96,23.16l-3.48,11a2.86,2.86,0,0,0,2.7,3.68Z"/><path class="cls-1" d="M84.79,41a2.83,2.83,0,0,0,1.36-5.31l-7.3-4a2.82,2.82,0,1,0-2.71,5l7.29,4A2.9,2.9,0,0,0,84.79,41Z"/><path class="cls-1" d="M58.1,81l1.39-1.21a93.07,93.07,0,0,1,9-6.73A34,34,0,0,1,76,69.21c4.35-1.43,6.68-.14,7.87,1.2,2.23,2.51,1.1,6.65.06,9.55a77.7,77.7,0,0,1-5.15,10.8c-4,7.17-8.39,13.66-8.58,13.93l-3.31,4.87Zm21.37-6.75c-.75,0-3.19.38-8.79,4.14C68.22,80,66,81.77,64.59,82.89l4.17,13.6c1.34-2.13,2.94-4.75,4.49-7.48C79,78.87,79.5,75.24,79.49,74.23Z"/></g></g></svg>